<?xml version="1.0" encoding="UTF-8" standalone="no"?>
<!-- Created with Inkscape (http://www.inkscape.org/) -->

<svg
   version="1.1"
   id="svg2"
   width="666.66669"
   height="666.66669"
   viewBox="0 0 666.66669 666.66669"
   sodipodi:docname="4882405.ai"
   xmlns:inkscape="http://www.inkscape.org/namespaces/inkscape"
   xmlns:sodipodi="http://sodipodi.sourceforge.net/DTD/sodipodi-0.dtd"
   xmlns="http://www.w3.org/2000/svg"
   xmlns:svg="http://www.w3.org/2000/svg">
  <defs
     id="defs6">
    <clipPath
       clipPathUnits="userSpaceOnUse"
       id="clipPath18">
      <path
         d="M 0,500 H 500 V 0 H 0 Z"
         id="path16" />
    </clipPath>
    <clipPath
       clipPathUnits="userSpaceOnUse"
       id="clipPath54">
      <path
         d="M 73.8299,366.012 H 136.132 V 256.654 H 73.8299 Z"
         id="path52" />
    </clipPath>
    <clipPath
       clipPathUnits="userSpaceOnUse"
       id="clipPath70">
      <path
         d="m 106.985,366.012 h 62.302 V 256.654 h -62.302 z"
         id="path68" />
    </clipPath>
    <clipPath
       clipPathUnits="userSpaceOnUse"
       id="clipPath142">
      <path
         d="M 255.067,202.46 H 387.004 V 139.823 H 255.067 Z"
         id="path140" />
    </clipPath>
    <clipPath
       clipPathUnits="userSpaceOnUse"
       id="clipPath170">
      <path
         d="M 230.333,167.825 H 382.372 V 85.631 H 230.333 Z"
         id="path168" />
    </clipPath>
    <clipPath
       clipPathUnits="userSpaceOnUse"
       id="clipPath198">
      <path
         d="m 222.068,236.597 h 67.27 v -48.79 h -67.27 z"
         id="path196" />
    </clipPath>
    <clipPath
       clipPathUnits="userSpaceOnUse"
       id="clipPath214">
      <path
         d="m 208.083,202.46 h 89.96 v -69.269 h -89.96 z"
         id="path212" />
    </clipPath>
    <clipPath
       clipPathUnits="userSpaceOnUse"
       id="clipPath282">
      <path
         d="m 254.296,265.468 h 11.935 v -5.114 h -11.935 z"
         id="path280" />
    </clipPath>
    <clipPath
       clipPathUnits="userSpaceOnUse"
       id="clipPath298">
      <path
         d="m 236.826,286.656 h 5.419 v -7.561 h -5.419 z"
         id="path296" />
    </clipPath>
    <clipPath
       clipPathUnits="userSpaceOnUse"
       id="clipPath338">
      <path
         d="m 105.249,204.284 h 49.158 v -73.277 h -49.158 z"
         id="path336" />
    </clipPath>
    <clipPath
       clipPathUnits="userSpaceOnUse"
       id="clipPath358">
      <path
         d="m 108.071,133.743 h 44.908 V 78.4189 h -44.908 z"
         id="path356" />
    </clipPath>
  </defs>
  <sodipodi:namedview
     id="namedview4"
     pagecolor="#ffffff"
     bordercolor="#000000"
     borderopacity="0.25"
     inkscape:showpageshadow="2"
     inkscape:pageopacity="0.0"
     inkscape:pagecheckerboard="0"
     inkscape:deskcolor="#d1d1d1" />
  <g
     id="g8"
     inkscape:groupmode="layer"
     inkscape:label="4882405"
     transform="matrix(1.3333333,0,0,-1.3333333,0,666.66667)">
    <path
       d="M 0,0 H 500 V 500 H 0 Z"
       style="fill:#fcfcfc;fill-opacity:1;fill-rule:nonzero;stroke:none"
       id="path10" />
    <g
       id="g12">
      <g
         id="g14"
         clip-path="url(#clipPath18)">
        <g
           id="g20"
           transform="translate(430.293,78.4189)">
          <path
             d="m 0,0 c 53.241,54.439 30.192,138.907 -72.957,158.178 -103.15,19.27 -125.394,134.705 -219.2,110.627 C -385.964,244.728 -421.579,67.448 -325.312,0 Z"
             style="fill:#fff8f8;fill-opacity:1;fill-rule:nonzero;stroke:none"
             id="path22" />
        </g>
        <path
           d="m 423.732,92.382 h 6.561 v 164.272 h -6.561 z"
           style="fill:#3b364d;fill-opacity:1;fill-rule:nonzero;stroke:none"
           id="path24" />
        <g
           id="g26"
           transform="translate(182.7539,78.4189)">
          <path
             d="m 0,0 c 0,-2.381 -20.874,-4.312 -46.622,-4.312 -25.749,0 -46.622,1.931 -46.622,4.312 0,2.381 20.873,4.312 46.622,4.312 C -20.874,4.312 0,2.381 0,0"
             style="fill:#ffe5e2;fill-opacity:1;fill-rule:nonzero;stroke:none"
             id="path28" />
        </g>
        <g
           id="g30"
           transform="translate(399.6348,73.8086)">
          <path
             d="m 0,0 c 0,-4.927 -40.569,-8.922 -90.615,-8.922 -50.045,0 -90.615,3.995 -90.615,8.922 0,4.927 40.57,8.922 90.615,8.922 C -40.569,8.922 0,4.927 0,0"
             style="fill:#ffe5e2;fill-opacity:1;fill-rule:nonzero;stroke:none"
             id="path32" />
        </g>
        <g
           id="g34"
           transform="translate(187.8965,245.7344)">
          <path
             d="m 0,0 h -126.393 c -5.941,0 -10.757,4.816 -10.757,10.758 v 109.601 c 0,5.941 4.816,10.758 10.757,10.758 H 0 c 5.941,0 10.758,-4.817 10.758,-10.758 V 10.758 C 10.758,4.816 5.941,0 0,0"
             style="fill:#aab2c8;fill-opacity:1;fill-rule:nonzero;stroke:none"
             id="path36" />
        </g>
        <path
           d="M 188.626,256.573 H 60.774 v 109.439 h 127.852 z"
           style="fill:#e0e7ff;fill-opacity:1;fill-rule:nonzero;stroke:none"
           id="path38" />
        <g
           id="g40"
           transform="translate(124.7002,366.0122)">
          <path
             d="M 0,0 V -109.439"
             style="fill:none;stroke:#aab2c8;stroke-width:1;stroke-linecap:butt;stroke-linejoin:miter;stroke-miterlimit:10;stroke-dasharray:none;stroke-opacity:1"
             id="path42" />
        </g>
        <g
           id="g44"
           transform="translate(188.626,311.2925)">
          <path
             d="M 0,0 H -127.852"
             style="fill:none;stroke:#aab2c8;stroke-width:1;stroke-linecap:butt;stroke-linejoin:miter;stroke-miterlimit:10;stroke-dasharray:none;stroke-opacity:1"
             id="path46" />
        </g>
        <g
           id="g48">
          <g
             id="g50" />
          <g
             id="g62">
            <g
               clip-path="url(#clipPath54)"
               opacity="0.539993"
               id="g60">
              <g
                 transform="translate(116.707,366.0122)"
                 id="g58">
                <path
                   d="m 0,0 -42.877,-109.358 h 18.963 L 19.425,0 Z"
                   style="fill:#ffffff;fill-opacity:1;fill-rule:nonzero;stroke:none"
                   id="path56" />
              </g>
            </g>
          </g>
        </g>
        <g
           id="g64">
          <g
             id="g66" />
          <g
             id="g78">
            <g
               clip-path="url(#clipPath70)"
               opacity="0.539993"
               id="g76">
              <g
                 transform="translate(149.8613,366.0122)"
                 id="g74">
                <path
                   d="m 0,0 -42.877,-109.358 h 18.964 L 19.426,0 Z"
                   style="fill:#ffffff;fill-opacity:1;fill-rule:nonzero;stroke:none"
                   id="path72" />
              </g>
            </g>
          </g>
        </g>
        <path
           d="M 454.717,250.783 H 328.821 v 11.742 h 125.896 z"
           style="fill:#773c4d;fill-opacity:1;fill-rule:nonzero;stroke:none"
           id="path80" />
        <path
           d="m 454.717,250.783 h -80.3 v 11.742 h 80.3 z"
           style="fill:#965363;fill-opacity:1;fill-rule:nonzero;stroke:none"
           id="path82" />
        <g
           id="g84"
           transform="translate(420.2969,262.5254)">
          <path
             d="m 0,0 h -64.223 c -2.236,0 -4.048,1.813 -4.048,4.049 v 10.762 c 0,2.236 1.812,4.049 4.048,4.049 H 0 Z"
             style="fill:#61648a;fill-opacity:1;fill-rule:nonzero;stroke:none"
             id="path86" />
        </g>
        <path
           d="m 421.39,266.512 h -64.411 v 10.886 h 64.411 z"
           style="fill:#edf1fc;fill-opacity:1;fill-rule:nonzero;stroke:none"
           id="path88" />
        <path
           d="m 402.802,266.512 h -45.979 v 10.886 h 45.979 z"
           style="fill:#e0e7ff;fill-opacity:1;fill-rule:nonzero;stroke:none"
           id="path90" />
        <g
           id="g92"
           transform="translate(409.7529,281.3853)">
          <path
             d="m 0,0 h -64.223 c -2.236,0 -4.048,1.812 -4.048,4.048 v 10.763 c 0,2.236 1.812,4.048 4.048,4.048 H 0 Z"
             style="fill:#ffc55a;fill-opacity:1;fill-rule:nonzero;stroke:none"
             id="path94" />
        </g>
        <path
           d="m 410.69,285.372 h -64.411 v 10.886 h 64.411 z"
           style="fill:#edf1fc;fill-opacity:1;fill-rule:nonzero;stroke:none"
           id="path96" />
        <path
           d="m 392.577,285.372 h -46.298 v 10.886 h 46.298 z"
           style="fill:#e0e7ff;fill-opacity:1;fill-rule:nonzero;stroke:none"
           id="path98" />
        <g
           id="g100"
           transform="translate(424.3145,300.2446)">
          <path
             d="m 0,0 h -64.223 c -2.236,0 -4.048,1.812 -4.048,4.049 v 10.762 c 0,2.236 1.812,4.049 4.048,4.049 H 0 Z"
             style="fill:#af2f48;fill-opacity:1;fill-rule:nonzero;stroke:none"
             id="path102" />
        </g>
        <path
           d="m 425.467,304.231 h -64.411 v 10.886 h 64.411 z"
           style="fill:#edf1fc;fill-opacity:1;fill-rule:nonzero;stroke:none"
           id="path104" />
        <path
           d="m 404.255,304.231 h -43.414 v 10.886 h 43.414 z"
           style="fill:#e0e7ff;fill-opacity:1;fill-rule:nonzero;stroke:none"
           id="path106" />
        <g
           id="g108"
           transform="translate(352.792,165.4023)">
          <path
             d="m 0,0 c 0.088,-14.031 -1.237,-27.4 -4.863,-39.437 0,-0.008 -0.008,-0.017 -0.008,-0.026 -10.163,-33.693 -38.418,-56.911 -104.488,-54.759 -89.673,2.92 -105.962,86.3 -113.483,164.259 -6.109,63.255 12.907,109.813 69.992,125.134 13.274,3.565 28.613,5.439 46.165,5.439 C -25.989,200.61 -0.34,53.347 0,0"
             style="fill:#ffc55a;fill-opacity:1;fill-rule:nonzero;stroke:none"
             id="path110" />
        </g>
        <g
           id="g112"
           transform="translate(347.9209,125.9395)">
          <path
             d="m 0,0 c -10.163,-33.693 -38.418,-56.911 -104.488,-54.759 -89.673,2.92 -105.962,86.3 -113.483,164.259 -6.109,63.255 12.908,109.813 69.992,125.134 -49.023,-29.884 -61.199,-84.329 -41.162,-167.151 20.028,-82.822 70.577,-106.911 103.312,-106.963 C -53.104,-39.541 -12.02,-28.856 0,0"
             style="fill:#f49947;fill-opacity:1;fill-rule:nonzero;stroke:none"
             id="path114" />
        </g>
        <g
           id="g116"
           transform="translate(223.3818,287.8315)">
          <path
             d="m 0,0 c -63.963,-11.387 -36.059,-102.751 -21.92,-128.335 14.139,-25.584 20.165,-55.88 52.834,-57.227 32.67,-1.347 74.412,13.465 78.452,24.237 4.039,10.772 -14.444,66.92 -14.444,66.92 0,0 -2.556,56.823 -20.261,71.747 C 56.957,-7.734 21.246,3.783 0,0"
             style="fill:#f49947;fill-opacity:1;fill-rule:nonzero;stroke:none"
             id="path118" />
        </g>
        <g
           id="g120"
           transform="translate(309.0225,133.7441)">
          <path
             d="m 0,0 c -11.685,-21.84 -51.509,-29.516 -65.154,-26.06 -8.033,2.039 -17.67,9.332 -26.433,19.802 -5.597,9.859 -10.08,21.347 -15.973,32.013 -2.215,4.008 -4.763,9.62 -7.243,16.286 -4.874,23.461 -4.729,51.321 4.433,60.814 12.439,12.874 24.515,21.942 25.381,29.916 0.671,6.257 -6.429,14.511 -5.002,20.378 1.392,0.357 2.845,0.671 4.347,0.934 17.501,3.117 44.809,-4.143 63.795,-15.14 1.827,-6.92 1.988,-16.193 6.285,-19.198 C -8.958,115.143 1.257,86.28 3.847,72.729 6.428,59.177 0,0 0,0"
             style="fill:#f27c49;fill-opacity:1;fill-rule:nonzero;stroke:none"
             id="path122" />
        </g>
        <g
           id="g124"
           transform="translate(395.8984,99.0986)">
          <path
             d="m 0,0 c 0.516,-8.22 24.296,2.271 27.444,6.817 0,0 -13.022,-37.419 -19.8,-37.419 -6.778,0 -25.255,19.49 -25.255,19.49 L -15.394,0 Z"
             style="fill:#af2f48;fill-opacity:1;fill-rule:nonzero;stroke:none"
             id="path126" />
        </g>
        <g
           id="g128"
           transform="translate(403.542,68.4971)">
          <path
             d="M 0,0 C -7.377,-3.165 11.058,43.364 19.801,42.314 28.543,41.266 9.526,4.086 0,0"
             style="fill:#d35473;fill-opacity:1;fill-rule:nonzero;stroke:none"
             id="path130" />
        </g>
        <g
           id="g132"
           transform="translate(398.7217,152.9746)">
          <path
             d="m 0,0 c -0.479,-24.055 -6.728,-53.878 -6.728,-53.878 h -15.4 c 0,0 -9.465,20.298 -13.9,40.727 -1.117,5.124 -1.91,10.257 -2.162,15.077 0,0 -23.863,-7.216 -46.95,-2.885 -9.604,1.796 -20.481,4.846 -29.911,7.801 -13.229,4.131 -23.609,8.07 -23.609,8.07 l 0.784,0.993 16.838,21.301 45.319,6.815 5.308,0.802 32.221,-9.988 C -9.612,31.75 0.488,24.055 0,0"
             style="fill:#31344c;fill-opacity:1;fill-rule:nonzero;stroke:none"
             id="path134" />
        </g>
        <g
           id="g136">
          <g
             id="g138" />
          <g
             id="g150">
            <g
               clip-path="url(#clipPath142)"
               opacity="0.539993"
               id="g148">
              <g
                 transform="translate(362.6934,139.8232)"
                 id="g146">
                <path
                   d="m 0,0 c -1.116,5.124 -1.909,10.258 -2.162,15.077 0,0 -23.862,-7.216 -46.949,-2.885 -9.605,1.796 -20.482,4.846 -29.911,7.801 l -22.826,9.064 -1.996,0.793 -3.782,15.757 48.745,17.03 L -39.69,57.173 -7.452,48 C -15.244,34.003 0.436,17.448 3.878,12.472 7.32,7.495 17.107,15.53 23.313,12.472 29.519,9.412 4.933,10.877 0,0"
                   style="fill:#232433;fill-opacity:1;fill-rule:nonzero;stroke:none"
                   id="path144" />
              </g>
            </g>
          </g>
        </g>
        <g
           id="g152"
           transform="translate(371.7871,85.6299)">
          <path
             d="M 0,0 C 7.081,-15.385 17.573,-22.729 23.168,-20.28 L 20.721,5.249 10.583,9.621 Z"
             style="fill:#af2f48;fill-opacity:1;fill-rule:nonzero;stroke:none"
             id="path154" />
        </g>
        <g
           id="g156"
           transform="translate(394.9551,65.3496)">
          <path
             d="M 0,0 C -12.461,-2.077 -10.142,22.036 -9.442,33.749 -8.742,45.462 1.05,44.413 2.099,35.32 3.147,26.229 8.394,1.398 0,0"
             style="fill:#d35473;fill-opacity:1;fill-rule:nonzero;stroke:none"
             id="path158" />
        </g>
        <g
           id="g160"
           transform="translate(382.3721,95.2529)">
          <path
             d="M 0,0 -10.58,-9.622 C -53.878,2.885 -79.37,42.33 -79.37,42.33 c -24.055,-27.897 -50.994,-34.155 -72.669,0 0,0 1.368,15.183 18.947,26.887 3.407,2.284 7.434,4.428 12.175,6.302 18.8,7.442 43.804,8.889 59.213,8.976 9.299,0.053 18.006,-4.479 23.374,-12.07 9.064,-12.812 17.701,-28.7 24.481,-42.331 C -5.517,13.334 0,0 0,0"
             style="fill:#383952;fill-opacity:1;fill-rule:nonzero;stroke:none"
             id="path162" />
        </g>
        <g
           id="g164">
          <g
             id="g166" />
          <g
             id="g178">
            <g
               clip-path="url(#clipPath170)"
               opacity="0.539993"
               id="g176">
              <g
                 transform="translate(382.3721,95.2529)"
                 id="g174">
                <path
                   d="M 0,0 -10.58,-9.622 C -53.878,2.885 -79.37,42.33 -79.37,42.33 c -24.055,-27.897 -50.994,-34.155 -72.669,0 0,0 1.368,15.183 18.947,26.887 l 18.146,3.355 c -21.179,-41.589 29.736,-31.889 38.923,-24.306 9.185,7.59 17.857,15.19 21.961,15.609 4.106,0.418 -17.543,-15.574 -2.274,-33.781 15.261,-18.215 50.48,-29.563 42.487,0 C -5.517,13.334 0,0 0,0"
                   style="fill:#232433;fill-opacity:1;fill-rule:nonzero;stroke:none"
                   id="path172" />
              </g>
            </g>
          </g>
        </g>
        <g
           id="g180"
           transform="translate(276.8467,302.3901)">
          <path
             d="m 0,0 h -0.645 c 0,0 -6.415,-24.551 -17.352,-33.702 -1.97,-1.647 -4.088,-2.798 -6.345,-3.216 -14.755,-2.728 -27.61,14.084 -30.042,25.614 -1.359,6.45 1.037,10.407 3.417,12.629 1.864,1.778 3.73,2.466 3.73,2.466 0,0 0.967,18.189 7.303,17.858 6.092,-0.314 5.073,-2.728 4.995,-2.911 0.391,0.523 13.648,18.145 22.764,16.228 9.255,-1.952 2.763,-15.583 2.763,-15.583 0,0 11.686,11.844 15.583,5.029 3.895,-6.816 -7.626,-15.095 -7.626,-15.095 0,0 9.9,0.157 10.877,-3.417 C 10.389,2.336 8.934,-1.081 0,0"
             style="fill:#6d3744;fill-opacity:1;fill-rule:nonzero;stroke:none"
             id="path182" />
        </g>
        <g
           id="g184"
           transform="translate(258.8496,268.688)">
          <path
             d="m 0,0 c -1.97,-1.647 -4.088,-2.798 -6.345,-3.216 -14.755,-2.728 -27.61,14.084 -30.042,25.614 -1.359,6.45 1.037,10.407 3.417,12.629 2.197,-2.85 5.133,-8.567 11.835,-1.325 h 3.112 z"
             style="fill:#542633;fill-opacity:1;fill-rule:nonzero;stroke:none"
             id="path186" />
        </g>
        <g
           id="g188"
           transform="translate(298.043,195.6533)">
          <path
             d="m 0,0 -67.379,-62.463 c -3.276,2.946 -6.127,6.023 -8.593,9.221 h -0.008 c -4.577,5.909 -7.871,12.22 -10.207,18.8 -1.751,4.941 -2.971,10.031 -3.773,15.216 -1.848,11.835 -1.595,24.211 -0.846,36.499 1.752,28.779 10.451,47.997 44.997,48.484 0,0 15.836,4.428 27.559,-1.891 C -9.029,58.907 -3.024,22.233 -0.881,6.807 -0.297,2.624 0,0 0,0"
             style="fill:#61648a;fill-opacity:1;fill-rule:nonzero;stroke:none"
             id="path190" />
        </g>
        <g
           id="g192">
          <g
             id="g194" />
          <g
             id="g206">
            <g
               clip-path="url(#clipPath198)"
               opacity="0.360001"
               id="g204">
              <g
                 transform="translate(283.6924,224.1006)"
                 id="g202">
                <path
                   d="m 0,0 c -35.47,-13.302 -50.155,12.496 -50.155,12.496 l -11.469,-41.226 24.542,-7.563 42.728,4.448 z"
                   style="fill:#383952;fill-opacity:1;fill-rule:nonzero;stroke:none"
                   id="path200" />
              </g>
            </g>
          </g>
        </g>
        <g
           id="g208">
          <g
             id="g210" />
          <g
             id="g222">
            <g
               clip-path="url(#clipPath214)"
               opacity="0.360001"
               id="g220">
              <g
                 transform="translate(298.043,195.6533)"
                 id="g218">
                <path
                   d="m 0,0 -67.379,-62.463 c -3.276,2.946 -6.127,6.023 -8.593,9.221 11.722,0.889 36.901,28.918 30.285,30.382 -5.917,1.298 -26.285,-12.559 -40.5,-11.582 -1.751,4.941 -2.971,10.031 -3.773,15.216 l 21.648,18.948 67.431,7.085 C -0.297,2.624 0,0 0,0"
                   style="fill:#383952;fill-opacity:1;fill-rule:nonzero;stroke:none"
                   id="path216" />
              </g>
            </g>
          </g>
        </g>
        <g
           id="g224"
           transform="translate(260.0635,203.9512)">
          <path
             d="m 0,0 c 7.914,5.349 17.125,0.892 20.394,-1.485 3.268,-2.377 0,-8.618 0,-8.618 0,0 -3.566,2.081 -4.754,2.377 -1.189,0.297 -6.918,-4.16 -18.317,-2.377 C -14.074,-8.319 0,0 0,0"
             style="fill:#f4b8ab;fill-opacity:1;fill-rule:nonzero;stroke:none"
             id="path226" />
        </g>
        <g
           id="g228"
           transform="translate(213.8232,241.2744)">
          <path
             d="M 0,0 C 15.521,11.575 24.312,1.404 23.561,-18.598 L 22.81,-38.601 c 0,0 19.793,6.317 24.634,6.317 0,0 0.422,-13.686 0,-18.599 0,0 -23.932,-23.16 -39.723,-24.915 C -8.071,-77.552 -4.913,-46.32 -6.316,-31.933 -7.72,-17.545 -5.392,-4.021 0,0"
             style="fill:#61648a;fill-opacity:1;fill-rule:nonzero;stroke:none"
             id="path230" />
        </g>
        <g
           id="g232"
           transform="translate(277.7217,192.9229)">
          <path
             d="m 0,0 11.772,47.687 c 1.201,4.861 5.562,8.277 10.57,8.277 h 67.554 c 4.436,0 7.683,-4.18 6.584,-8.478 L 82.848,-2.378 Z"
             style="fill:#c3c9f4;fill-opacity:1;fill-rule:nonzero;stroke:none"
             id="path234" />
        </g>
        <g
           id="g236"
           transform="translate(282.4512,192.9229)">
          <path
             d="m 0,0 11.772,47.687 c 1.201,4.861 5.562,8.277 10.57,8.277 h 67.554 c 4.436,0 7.682,-4.18 6.584,-8.478 L 82.848,-2.378 Z"
             style="fill:#e0e7ff;fill-opacity:1;fill-rule:nonzero;stroke:none"
             id="path238" />
        </g>
        <g
           id="g240"
           transform="translate(345.7822,188.168)">
          <path
             d="m 0,0 h -85.944 c -1.313,0 -2.377,1.064 -2.377,2.377 0,1.313 1.064,2.378 2.377,2.378 H 0 C 1.313,4.755 2.377,3.69 2.377,2.377 2.377,1.064 1.313,0 0,0"
             style="fill:#c3c9f4;fill-opacity:1;fill-rule:nonzero;stroke:none"
             id="path242" />
        </g>
        <g
           id="g244"
           transform="translate(366.043,188.168)">
          <path
             d="m 0,0 h -85.944 c -1.313,0 -2.377,1.064 -2.377,2.377 0,1.313 1.064,2.378 2.377,2.378 H 0 C 1.312,4.755 2.377,3.69 2.377,2.377 2.377,1.064 1.312,0 0,0"
             style="fill:#e0e7ff;fill-opacity:1;fill-rule:nonzero;stroke:none"
             id="path246" />
        </g>
        <g
           id="g248"
           transform="translate(337.3047,219.8516)">
          <path
             d="m 0,0 c -1.133,-6.2 -3.942,-10.88 -6.276,-10.454 -2.334,0.427 -3.307,5.798 -2.174,11.998 1.133,6.2 3.942,10.881 6.276,10.454 C 0.16,11.571 1.133,6.2 0,0"
             style="fill:#c3c9f4;fill-opacity:1;fill-rule:nonzero;stroke:none"
             id="path250" />
        </g>
        <g
           id="g252"
           transform="translate(280.7021,298.4023)">
          <path
             d="m 0,0 c 1.497,-21.956 -1.996,-31.687 -14.472,-32.934 v -5.115 c 0,-3.789 -3.071,-6.861 -6.86,-6.861 -3.79,0 -6.861,3.072 -6.861,6.861 v 5.115 c 0,0 -9.981,4.242 -11.977,10.479 -1.996,6.237 0,0.998 0,0.998 L -41.057,3.992 H 0.324 Z"
             style="fill:#f4b8ab;fill-opacity:1;fill-rule:nonzero;stroke:none"
             id="path254" />
        </g>
        <g
           id="g256"
           transform="translate(241.1611,286.5083)">
          <path
             d="M 0,0 C -3.138,5.721 -6.829,3.322 -7.567,0 -8.306,-3.322 -1.661,-11.409 0,-8.565 1.66,-5.721 0,0 0,0"
             style="fill:#f4b8ab;fill-opacity:1;fill-rule:nonzero;stroke:none"
             id="path258" />
        </g>
        <g
           id="g260"
           transform="translate(234.2812,305.21)">
          <path
             d="m 0,0 c 6.68,-8.117 25.619,-12.338 32.473,-10.39 6.853,1.948 -2.886,8.28 -2.886,8.28 0,0 12.71,-8.767 18.529,-5.845 5.821,2.922 -9.872,10.065 -9.872,10.065 z"
             style="fill:#6d3744;fill-opacity:1;fill-rule:nonzero;stroke:none"
             id="path262" />
        </g>
        <g
           id="g264"
           transform="translate(256.9736,287.8315)">
          <path
             d="m 0,0 c 0,-1.173 -0.211,-2.125 -0.471,-2.125 -0.259,0 -0.469,0.952 -0.469,2.125 0,1.174 0.21,2.125 0.469,2.125 C -0.211,2.125 0,1.174 0,0 Z"
             style="fill:none;stroke:#191918;stroke-width:2;stroke-linecap:butt;stroke-linejoin:miter;stroke-miterlimit:10;stroke-dasharray:none;stroke-opacity:1"
             id="path266" />
        </g>
        <g
           id="g268"
           transform="translate(270.46,287.8315)">
          <path
             d="m 0,0 c 0,-1.173 -0.211,-2.125 -0.471,-2.125 -0.259,0 -0.47,0.952 -0.47,2.125 0,1.174 0.211,2.125 0.47,2.125 C -0.211,2.125 0,1.174 0,0 Z"
             style="fill:none;stroke:#191918;stroke-width:2;stroke-linecap:butt;stroke-linejoin:miter;stroke-miterlimit:10;stroke-dasharray:none;stroke-opacity:1"
             id="path270" />
        </g>
        <g
           id="g272"
           transform="translate(265.0264,275.9727)">
          <path
             d="M 0,0 C -6.459,-0.148 -11.468,4.502 -11.468,4.502"
             style="fill:none;stroke:#e56a85;stroke-width:1;stroke-linecap:round;stroke-linejoin:miter;stroke-miterlimit:10;stroke-dasharray:none;stroke-opacity:1"
             id="path274" />
        </g>
        <g
           id="g276">
          <g
             id="g278" />
          <g
             id="g290">
            <g
               clip-path="url(#clipPath282)"
               opacity="0.529999"
               id="g288">
              <g
                 transform="translate(266.2305,265.4683)"
                 id="g286">
                <path
                   d="M 0,0 C -5.525,-0.497 -11.935,-0.294 -11.935,-0.294 L 0,-5.115 Z"
                   style="fill:#dd6595;fill-opacity:1;fill-rule:nonzero;stroke:none"
                   id="path284" />
              </g>
            </g>
          </g>
        </g>
        <g
           id="g292">
          <g
             id="g294" />
          <g
             id="g306">
            <g
               clip-path="url(#clipPath298)"
               opacity="0.529999"
               id="g304">
              <g
                 transform="translate(240.8271,284.9736)"
                 id="g302">
                <path
                   d="M 0,0 C -2.797,2.936 -4.171,1.73 -3.983,-1.321 -3.797,-4.373 -0.119,-6.559 1.072,-5.684 2.263,-4.81 0,0 0,0"
                   style="fill:#dd6595;fill-opacity:1;fill-rule:nonzero;stroke:none"
                   id="path300" />
              </g>
            </g>
          </g>
        </g>
        <g
           id="g308"
           transform="translate(131.4258,132.0732)">
          <path
             d="m 0,0 c -12.408,4.558 -19.245,2.785 -23.044,7.85 0,0 10.129,1.773 15.7,0 z"
             style="fill:#7c9e1e;fill-opacity:1;fill-rule:nonzero;stroke:none"
             id="path310" />
        </g>
        <g
           id="g312"
           transform="translate(124.082,139.9229)">
          <path
             d="m 0,0 c -15.078,7.879 -19.55,16.822 -23.383,22.998 -3.833,6.175 -5.962,11.285 -7.453,11.711 -1.49,0.426 6.176,-1.064 13.415,-8.304 7.24,-7.24 10.222,-8.304 15.971,-14.053 C 4.299,6.602 9.409,-1.859 10.049,-7.85 H 7.344 Z"
             style="fill:#b7ac15;fill-opacity:1;fill-rule:nonzero;stroke:none"
             id="path314" />
        </g>
        <g
           id="g316"
           transform="translate(128.3809,142.0527)">
          <path
             d="m 0,0 c -8.146,12.503 -0.834,19.684 -10.646,33.857 -11.5,16.609 -7.879,33.218 -6.176,43.653 0,0 -2.55,-12.144 7.456,-23.959 C 0.639,41.736 10.435,37.159 11.286,19.538 12.138,1.917 8.73,-9.979 8.73,-9.979 H 3.045 Z"
             style="fill:#7c9e1e;fill-opacity:1;fill-rule:nonzero;stroke:none"
             id="path318" />
        </g>
        <g
           id="g320"
           transform="translate(135.7959,132.0732)">
          <path
             d="m 0,0 c -2.73,11.712 2.593,31.699 3.02,51.502 0.425,19.804 -10.648,34.496 5.749,53.021 0,0 -3.408,-3.406 1.277,-17.034 C 14.73,73.861 25.165,59.594 20.054,41.281 14.943,22.969 3.932,7.971 4.008,0 Z"
             style="fill:#b7ac15;fill-opacity:1;fill-rule:nonzero;stroke:none"
             id="path322" />
        </g>
        <g
           id="g324"
           transform="translate(139.8037,132.0732)">
          <path
             d="m 0,0 c -1.704,14.054 12.64,35.958 24.776,40.855 0,0 1.278,-10.764 -6.6,-19.543 C 10.297,12.535 4.439,0 4.439,0 Z"
             style="fill:#a88f14;fill-opacity:1;fill-rule:nonzero;stroke:none"
             id="path326" />
        </g>
        <g
           id="g328"
           transform="translate(144.2432,132.0732)">
          <path
             d="M 0,0 C 0.534,9.341 8.626,12.616 16.93,15.024 16.93,15.024 6.922,4.926 5.219,0 Z"
             style="fill:#426313;fill-opacity:1;fill-rule:nonzero;stroke:none"
             id="path330" />
        </g>
        <g
           id="g332">
          <g
             id="g334" />
          <g
             id="g346">
            <g
               clip-path="url(#clipPath338)"
               opacity="0.360001"
               id="g344">
              <g
                 transform="translate(148.1396,131.0078)"
                 id="g342">
                <path
                   d="m 0,0 c 1.415,7.074 4.605,9.3 4.021,9.703 -0.583,0.403 -4.214,-5.551 -6.038,-8.638 0,0 -2.429,8.071 1.209,15.025 3.638,6.954 7.075,12.21 7.075,12.21 0,0 -11.724,-13.543 -12.33,-20.389 0,0 -1.213,6.88 0.808,15.757 2.022,8.877 7.276,17.367 5.357,27.879 -1.921,10.511 -3.998,21.728 -3.998,21.728 0,0 0.873,-10.687 1.879,-19.948 C -1.01,44.067 -3.753,39.216 -6.425,29.311 -9.096,19.405 -7.601,5.312 -8.753,5.385 c -1.151,0.072 -2.971,-2.556 -2.971,-2.556 0,0 -1.22,15.161 -3.036,28.099 -1.815,12.937 -1.613,14.679 -9.497,22.399 -7.884,7.72 -8.894,12.44 -8.894,12.44 0,0 5.324,-10.581 9.737,-17.454 4.413,-6.874 5.828,-9.906 5.828,-22.035 0,-12.129 0.607,-18.945 1.617,-20.893 1.011,-1.949 -7.479,11.525 -14.15,16.108 -6.671,4.583 -12.129,10.85 -12.735,11.861 -0.607,1.01 6.468,-11.725 11.724,-15.162 5.256,-3.436 14.416,-15.161 14.416,-15.161 L -31.736,7.074 -14.76,0 Z"
                   style="fill:#426313;fill-opacity:1;fill-rule:nonzero;stroke:none"
                   id="path340" />
              </g>
            </g>
          </g>
        </g>
        <g
           id="g348"
           transform="translate(161.5312,128.2998)">
          <path
             d="m 0,0 -7.991,-46.033 c -0.097,-0.562 -0.289,-1.074 -0.562,-1.539 -0.809,-1.395 -2.316,-2.309 -4.015,-2.309 H -41.32 c -2.277,0 -4.225,1.652 -4.585,3.896 l -7.494,46.034 c -0.457,2.829 1.722,5.394 4.592,5.394 H -4.585 C -1.699,5.443 0.489,2.846 0,0"
             style="fill:#3a3852;fill-opacity:1;fill-rule:nonzero;stroke:none"
             id="path350" />
        </g>
        <g
           id="g352">
          <g
             id="g354" />
          <g
             id="g366">
            <g
               clip-path="url(#clipPath358)"
               opacity="0.539993"
               id="g364">
              <g
                 transform="translate(152.9785,80.7275)"
                 id="g362">
                <path
                   d="m 0,0 c -0.81,-1.395 -2.316,-2.309 -4.016,-2.309 h -28.752 c -2.276,0 -4.224,1.652 -4.585,3.896 l -7.494,46.034 c -0.457,2.829 1.723,5.395 4.593,5.395 h 15.205 C -39.148,31.116 -15.63,5.667 0,0"
                   style="fill:#232433;fill-opacity:1;fill-rule:nonzero;stroke:none"
                   id="path360" />
              </g>
            </g>
          </g>
        </g>
        <g
           id="g368"
           transform="translate(201.4629,159.499)">
          <path
             d="M 0,0 C 5.893,-10.666 10.376,-22.154 15.973,-32.013 9.842,-24.701 4.144,-15.837 -0.289,-6.114 -3.125,0.102 -5.502,7.913 -7.243,16.286 -4.764,9.62 -2.216,4.008 0,0"
             style="fill:#ffc55a;fill-opacity:1;fill-rule:nonzero;stroke:none"
             id="path370" />
        </g>
      </g>
    </g>
  </g>
</svg>
